# xmcd
#
# Track frame offsets:
#	150
#	11738
#	25565
#	35098
#	51090
#	64098
#	87690
#	100245
#	108546
#	125659
#	143033
#	150813
# Disc length: 2248 seconds
# Revision: 1
# Processed by: cddbd v1.5.1PL2 Copyright (c) Steve Scherf et al.
#
# Submitted via: libkcddb 0.21
#
DISCID=9b08c60c
DTITLE=Nel and Huib Kraaieveld - Maondag Wasdag
DYEAR=2005
DGENRE=Dialect
TTITLE0=Bè jij ok in 't baggerdurp gebore?
TTITLE1=Moeders vrijdag
TTITLE2=Diëlectlied
TTITLE3=Klaaine dinger
TTITLE4=Voor aaltijd verliefd
TTITLE5=Maondag wasdag
TTITLE6=Aorie onze meulebaos
TTITLE7=Voor de beurt
TTITLE8=Ons koksie
TTITLE9=Plaetjies kijke, loflied op Slierecht
TTITLE10=Slierecht
TTITLE11=Naer 't Baggerwaark
EXTD=
EXTT0=
EXTT1=
EXTT2=
EXTT3=
EXTT4=
EXTT5=
EXTT6=
EXTT7=
EXTT8=
EXTT9=
EXTT10=
EXTT11=
PLAYORDER=
